<?xml version="1.0" standalone="no"?>
<!DOCTYPE svg PUBLIC "-//W3C//DTD SVG 20010904//EN"
 "http://www.w3.org/TR/2001/REC-SVG-20010904/DTD/svg10.dtd">
<svg version="1.0" xmlns="http://www.w3.org/2000/svg"
 width="638.000000pt" height="158.000000pt" viewBox="0 0 638.000000 158.000000"
 preserveAspectRatio="xMidYMid meet">

<g transform="translate(0.000000,158.000000) scale(0.100000,-0.100000)"
fill="#000000" stroke="none">
<path d="M4900 1129 l0 -201 -51 46 c-66 60 -133 80 -240 74 -170 -10 -295
-122 -344 -309 -18 -64 -19 -217 -4 -291 27 -129 113 -247 219 -297 48 -23 68
-26 155 -26 116 0 168 18 228 80 l37 38 0 -56 0 -57 160 0 160 0 0 600 0 600
-160 0 -160 0 0 -201z m-80 -381 c62 -43 75 -70 75 -163 0 -69 -4 -88 -21
-112 -37 -49 -82 -73 -139 -73 -98 0 -160 72 -160 185 0 113 62 185 160 185
38 0 61 -6 85 -22z"/>
<path d="M1180 1160 l0 -110 -55 0 -55 0 0 -135 0 -135 54 0 54 0 4 -212 c4
-233 10 -261 73 -336 58 -69 191 -107 345 -100 l65 3 0 135 0 135 -65 3 c-100
5 -100 4 -100 204 l0 168 79 0 79 0 7 83 c4 45 5 105 3 132 l-3 50 -82 3 -83
3 0 109 0 110 -160 0 -160 0 0 -110z"/>
<path d="M1780 590 l0 -461 158 3 157 3 3 458 2 457 -160 0 -160 0 0 -460z"/>
<path d="M2500 1032 c-179 -60 -275 -180 -300 -377 -19 -151 30 -314 123 -406
176 -172 493 -172 666 1 45 45 111 156 111 187 0 10 -34 13 -165 13 l-166 0
-35 -35 c-31 -31 -41 -35 -87 -35 -32 0 -61 6 -76 16 -22 16 -60 85 -61 111 0
10 70 13 303 15 l302 3 -1 95 c-3 194 -96 336 -261 401 -81 32 -273 37 -353
11z m230 -247 c30 -15 60 -61 60 -90 0 -13 -20 -15 -135 -15 -123 0 -135 2
-135 18 0 74 131 128 210 87z"/>
<path d="M3705 1036 c-55 -17 -80 -32 -126 -73 l-39 -35 0 56 0 56 -158 0
-159 0 -7 -445 c-4 -245 -5 -449 -1 -455 4 -6 66 -10 159 -10 l153 0 7 272 c5
186 12 282 21 304 37 90 168 110 237 36 42 -44 48 -88 48 -359 l0 -253 153 0
154 0 6 128 c10 184 8 406 -3 487 -21 145 -105 255 -222 290 -62 18 -167 19
-223 1z"/>
<path d="M5603 1035 c-177 -55 -283 -223 -283 -448 0 -107 14 -174 52 -256 54
-113 149 -186 274 -211 105 -21 233 17 295 88 l29 33 0 -56 0 -55 159 0 159 0
7 213 c3 116 5 320 3 452 l-3 240 -157 3 -158 3 0 -56 c0 -53 -14 -73 -27 -40
-9 25 -84 72 -143 89 -64 19 -149 20 -207 1z m271 -279 c35 -15 79 -65 91
-104 12 -40 7 -117 -11 -161 -57 -144 -264 -121 -303 34 -40 157 87 288 223
231z"/>
</g>
</svg>
